<svg width="20" height="30" viewBox="0 0 20 30" fill="none" xmlns="http://www.w3.org/2000/svg">
<path d="M18.8346 21.1666L11.168 28.8333C11.0013 29 10.8207 29.1177 10.6263 29.1866C10.4319 29.2566 10.2235 29.2916 10.0013 29.2916C9.77908 29.2916 9.57075 29.2566 9.3763 29.1866C9.18186 29.1177 9.0013 29 8.83464 28.8333L1.1263 21.125C0.820747 20.8194 0.667969 20.4444 0.667969 20C0.667969 19.5555 0.834635 19.1666 1.16797 18.8333C1.47352 18.5277 1.86241 18.375 2.33464 18.375C2.80686 18.375 3.19575 18.5277 3.5013 18.8333L8.33464 23.6666L8.33464 1.66663C8.33464 1.1944 8.49408 0.798847 8.81297 0.479959C9.13297 0.15996 9.52908 -4.19617e-05 10.0013 -4.19617e-05C10.4735 -4.19617e-05 10.8691 0.15996 11.188 0.479959C11.508 0.798847 11.668 1.1944 11.668 1.66663L11.668 23.6666L16.543 18.7916C16.8485 18.4861 17.2235 18.3333 17.668 18.3333C18.1124 18.3333 18.5013 18.5 18.8346 18.8333C19.1402 19.1388 19.293 19.5277 19.293 20C19.293 20.4722 19.1402 20.8611 18.8346 21.1666Z" fill="#676767"/>
</svg>
