<svg width="21" height="20" viewBox="0 0 21 20" fill="none" xmlns="http://www.w3.org/2000/svg">
<path d="M19.9205 18.5455L15.6818 14.3068C16.8864 12.7955 17.6136 10.875 17.6136 8.80682C17.6136 3.95455 13.6591 0 8.80682 0C3.95455 0 0 3.95455 0 8.80682C0 13.6591 3.95455 17.6136 8.80682 17.6136C10.9659 17.6136 12.9545 16.8295 14.5 15.5341L18.7159 19.75C18.8864 19.9205 19.1023 20 19.3182 20C19.5341 20 19.75 19.9205 19.9205 19.75C20.25 19.4205 20.25 18.875 19.9205 18.5455ZM1.70455 8.80682C1.70455 4.88636 4.88636 1.70455 8.80682 1.70455C12.7273 1.70455 15.9091 4.88636 15.9091 8.80682C15.9091 10.7273 15.1591 12.4545 13.9205 13.7273L13.9091 13.7386C13.8977 13.75 13.8977 13.75 13.8977 13.7614C12.6023 15.0909 10.7955 15.9091 8.80682 15.9091C4.88636 15.9091 1.70455 12.7273 1.70455 8.80682Z" fill="white"/>
</svg>
