<svg width="26" height="24" viewBox="0 0 26 24" fill="none" xmlns="http://www.w3.org/2000/svg">
<mask id="path-1-outside-1_844_1334" maskUnits="userSpaceOnUse" x="0" y="-0.160645" width="26" height="24" fill="black">
<rect fill="white" y="-0.160645" width="26" height="24"/>
<path d="M1.14507 0.984425L1 1.12949V10.6391C1 17.2872 1.01501 20.1786 1.05503 20.2637C1.08504 20.3237 1.15007 20.4037 1.2001 20.4388C1.38018 20.5488 8.99384 23 9.16392 23C9.26397 23 10.7797 22.4197 13.0858 21.4993L16.8426 19.9935L20.6394 21.2291C24.7964 22.5798 24.6514 22.5448 24.8815 22.2346L24.9865 22.0946L24.9965 12.8801C25.0065 5.62665 24.9965 3.6407 24.9465 3.54565C24.9165 3.48062 24.8314 3.38558 24.7614 3.33555C24.6213 3.2305 17.0177 0.839355 16.8276 0.839355C16.7626 0.839355 15.0117 1.36961 12.9357 2.01492L9.16392 3.19549L5.39711 2.01492C3.32612 1.36961 1.55527 0.839355 1.46022 0.839355C1.34016 0.839355 1.25012 0.879375 1.14507 0.984425ZM16.2973 14.8211L16.2823 19.1081L12.9908 20.4238C10.8497 21.2792 9.68917 21.7194 9.67416 21.6844C9.66416 21.6493 9.65916 17.6874 9.66416 12.8751L9.67916 4.12093L16.2823 2.05994L16.2973 6.29697C16.3023 8.62809 16.3023 12.4649 16.2973 14.8211ZM23.961 12.655C23.961 17.3573 23.946 21.1991 23.931 21.1991C23.901 21.1991 22.8055 20.844 18.9486 19.5934L17.3578 19.0731V2.05494L23.961 4.11593V12.655ZM5.40211 3.10544L8.62866 4.11593L8.64367 12.9652C8.65367 20.0336 8.64367 21.8044 8.59364 21.7844C8.5036 21.7544 2.91092 19.9285 2.41568 19.7734L2.00048 19.6434V10.8692C2.00048 2.54017 2.00548 2.08996 2.09052 2.09496C2.13554 2.09496 3.62626 2.55018 5.40211 3.10544Z"/>
<path d="M12.8561 5.49656C11.6305 5.87674 10.575 6.22191 10.515 6.25192C10.3799 6.32195 10.2549 6.53706 10.2549 6.69213C10.2549 6.95726 10.5 7.19237 10.7801 7.19237C10.8452 7.19237 11.9107 6.87722 13.1413 6.49204C15.1472 5.86674 15.3974 5.78169 15.5224 5.64163C15.7625 5.3715 15.6725 5.00632 15.3273 4.86125C15.2373 4.82123 15.1422 4.79122 15.1222 4.79622C15.1022 4.79622 14.0817 5.11137 12.8561 5.49656Z"/>
<path d="M12.8814 7.77263C10.9605 8.37292 10.7154 8.46297 10.5853 8.60303C10.4653 8.73309 10.4503 8.78812 10.4703 8.9532C10.5003 9.19332 10.6654 9.38341 10.8755 9.41842C10.9855 9.43843 11.6208 9.25835 13.1716 8.77311C14.3522 8.40294 15.3676 8.06277 15.4377 8.01775C15.5727 7.93271 15.6578 7.75763 15.6578 7.56754C15.6578 7.38245 15.4177 7.14233 15.2076 7.11732C15.0825 7.10231 14.4322 7.2874 12.8814 7.77263Z"/>
<path d="M12.8965 10.664C11.6909 11.1142 10.6754 11.5044 10.6354 11.5394C10.4653 11.6845 10.4503 11.8546 10.4653 13.5754C10.4803 15.3913 10.4853 15.4163 10.7404 15.5514C10.8004 15.5864 10.9155 15.6114 10.9955 15.6064C11.1156 15.6064 14.8774 14.1807 15.3476 13.9606C15.6528 13.8155 15.6578 13.7805 15.6578 11.8996V10.1938L15.5227 10.0437C15.4427 9.96368 15.3176 9.88364 15.2326 9.86863C15.1225 9.84862 14.5172 10.0587 12.8965 10.664ZM14.5973 12.1497L14.5823 13.1552L13.3067 13.6504C12.6063 13.9256 11.911 14.1907 11.7659 14.2457L11.5058 14.3458L11.5158 13.3103L11.5308 12.2798L13.0315 11.7145C13.8569 11.4044 14.5472 11.1492 14.5723 11.1492C14.5923 11.1442 14.6023 11.5995 14.5973 12.1497Z"/>
<path d="M12.8305 16.6969C11.3998 17.2622 10.6494 17.5774 10.5944 17.6524C10.4793 17.7875 10.4793 18.1126 10.5844 18.2727C10.6294 18.3427 10.7495 18.4228 10.8495 18.4528C11.0246 18.5078 11.1347 18.4678 13.2357 17.6524C15.5568 16.752 15.6568 16.6969 15.6568 16.3968C15.6568 16.0767 15.4267 15.8415 15.1216 15.8515C15.0465 15.8565 14.016 16.2367 12.8305 16.6969Z"/>
<path d="M18.6587 9.00835C18.5886 9.04337 18.4936 9.15342 18.4436 9.25847C18.3635 9.41355 18.3585 9.46857 18.4085 9.61865C18.4436 9.71869 18.5186 9.82875 18.5736 9.86876C18.7237 9.96381 22.2004 11.0443 22.3604 11.0443C22.6306 11.0443 22.8807 10.7192 22.8257 10.434C22.7706 10.1489 22.6206 10.0839 20.7497 9.49859C19.7692 9.19344 18.9288 8.94332 18.8738 8.94332C18.8237 8.94332 18.7287 8.97334 18.6587 9.00835Z"/>
<path d="M18.2327 12.615C18.0926 12.6751 18.0076 12.7901 17.9375 13.0102C17.9025 13.1153 18.0076 13.3904 18.1126 13.4805C18.2127 13.5605 22.3246 14.8961 22.4747 14.8961C22.6698 14.8961 22.8599 14.7911 22.9399 14.641C23.035 14.4509 23.03 14.3008 22.9099 14.1108C22.8099 13.9407 22.7799 13.9307 18.933 12.6901C18.4228 12.525 18.4328 12.525 18.2327 12.615Z"/>
<path d="M2.82072 6.01188L2.64564 6.18696L2.66064 7.7377C2.67565 9.25343 2.68065 9.29345 2.7857 9.3985C2.91076 9.52856 6.79263 10.6941 7.09277 10.6941C7.19782 10.6941 7.32788 10.6591 7.38291 10.6191C7.59301 10.474 7.60802 10.339 7.59301 8.7782L7.578 7.29249L7.44794 7.16743C7.34289 7.06238 6.9427 6.92732 5.2819 6.43708C4.16136 6.11192 3.1909 5.84179 3.12086 5.84179C3.04083 5.84179 2.92577 5.90683 2.82072 6.01188ZM5.37695 7.54261L6.5275 7.87777L6.54251 8.68816C6.54751 9.12837 6.5375 9.49355 6.51749 9.49355C6.49748 9.49355 5.85718 9.30846 5.09181 9.08335L3.70114 8.67315V7.04737L3.96627 7.12741C4.10634 7.16743 4.74664 7.35752 5.37695 7.54261Z"/>
<path d="M2.91558 12.0548C2.86055 12.0798 2.77051 12.1798 2.72049 12.2699C2.60543 12.48 2.66546 12.7701 2.85055 12.9002C3.01062 13.0152 6.84747 14.1458 7.08258 14.1458C7.31269 14.1458 7.43275 14.0758 7.5328 13.8857C7.63284 13.6906 7.59282 13.4505 7.43275 13.3004C7.3427 13.2153 6.76243 13.0253 5.29172 12.59C4.18119 12.2649 3.22073 11.9998 3.15069 11.9998C3.08066 11.9998 2.97561 12.0248 2.91558 12.0548Z"/>
<path d="M2.8563 14.4258C2.6662 14.5858 2.61118 14.826 2.72123 15.0361C2.76625 15.1211 2.84129 15.2161 2.89131 15.2412C3.0764 15.3412 5.06235 15.8965 5.23244 15.8965C5.63263 15.8965 5.85774 15.3812 5.59261 15.0711C5.49756 14.966 5.27246 14.881 4.37703 14.6159C3.77173 14.4408 3.21647 14.2957 3.14143 14.2957C3.0714 14.2957 2.94134 14.3557 2.8563 14.4258Z"/>
</mask>
<path d="M1.14507 0.984425L1 1.12949V10.6391C1 17.2872 1.01501 20.1786 1.05503 20.2637C1.08504 20.3237 1.15007 20.4037 1.2001 20.4388C1.38018 20.5488 8.99384 23 9.16392 23C9.26397 23 10.7797 22.4197 13.0858 21.4993L16.8426 19.9935L20.6394 21.2291C24.7964 22.5798 24.6514 22.5448 24.8815 22.2346L24.9865 22.0946L24.9965 12.8801C25.0065 5.62665 24.9965 3.6407 24.9465 3.54565C24.9165 3.48062 24.8314 3.38558 24.7614 3.33555C24.6213 3.2305 17.0177 0.839355 16.8276 0.839355C16.7626 0.839355 15.0117 1.36961 12.9357 2.01492L9.16392 3.19549L5.39711 2.01492C3.32612 1.36961 1.55527 0.839355 1.46022 0.839355C1.34016 0.839355 1.25012 0.879375 1.14507 0.984425ZM16.2973 14.8211L16.2823 19.1081L12.9908 20.4238C10.8497 21.2792 9.68917 21.7194 9.67416 21.6844C9.66416 21.6493 9.65916 17.6874 9.66416 12.8751L9.67916 4.12093L16.2823 2.05994L16.2973 6.29697C16.3023 8.62809 16.3023 12.4649 16.2973 14.8211ZM23.961 12.655C23.961 17.3573 23.946 21.1991 23.931 21.1991C23.901 21.1991 22.8055 20.844 18.9486 19.5934L17.3578 19.0731V2.05494L23.961 4.11593V12.655ZM5.40211 3.10544L8.62866 4.11593L8.64367 12.9652C8.65367 20.0336 8.64367 21.8044 8.59364 21.7844C8.5036 21.7544 2.91092 19.9285 2.41568 19.7734L2.00048 19.6434V10.8692C2.00048 2.54017 2.00548 2.08996 2.09052 2.09496C2.13554 2.09496 3.62626 2.55018 5.40211 3.10544Z" fill="white"/>
<path d="M12.8561 5.49656C11.6305 5.87674 10.575 6.22191 10.515 6.25192C10.3799 6.32195 10.2549 6.53706 10.2549 6.69213C10.2549 6.95726 10.5 7.19237 10.7801 7.19237C10.8452 7.19237 11.9107 6.87722 13.1413 6.49204C15.1472 5.86674 15.3974 5.78169 15.5224 5.64163C15.7625 5.3715 15.6725 5.00632 15.3273 4.86125C15.2373 4.82123 15.1422 4.79122 15.1222 4.79622C15.1022 4.79622 14.0817 5.11137 12.8561 5.49656Z" fill="white"/>
<path d="M12.8814 7.77263C10.9605 8.37292 10.7154 8.46297 10.5853 8.60303C10.4653 8.73309 10.4503 8.78812 10.4703 8.9532C10.5003 9.19332 10.6654 9.38341 10.8755 9.41842C10.9855 9.43843 11.6208 9.25835 13.1716 8.77311C14.3522 8.40294 15.3676 8.06277 15.4377 8.01775C15.5727 7.93271 15.6578 7.75763 15.6578 7.56754C15.6578 7.38245 15.4177 7.14233 15.2076 7.11732C15.0825 7.10231 14.4322 7.2874 12.8814 7.77263Z" fill="white"/>
<path d="M12.8965 10.664C11.6909 11.1142 10.6754 11.5044 10.6354 11.5394C10.4653 11.6845 10.4503 11.8546 10.4653 13.5754C10.4803 15.3913 10.4853 15.4163 10.7404 15.5514C10.8004 15.5864 10.9155 15.6114 10.9955 15.6064C11.1156 15.6064 14.8774 14.1807 15.3476 13.9606C15.6528 13.8155 15.6578 13.7805 15.6578 11.8996V10.1938L15.5227 10.0437C15.4427 9.96368 15.3176 9.88364 15.2326 9.86863C15.1225 9.84862 14.5172 10.0587 12.8965 10.664ZM14.5973 12.1497L14.5823 13.1552L13.3067 13.6504C12.6063 13.9256 11.911 14.1907 11.7659 14.2457L11.5058 14.3458L11.5158 13.3103L11.5308 12.2798L13.0315 11.7145C13.8569 11.4044 14.5472 11.1492 14.5723 11.1492C14.5923 11.1442 14.6023 11.5995 14.5973 12.1497Z" fill="white"/>
<path d="M12.8305 16.6969C11.3998 17.2622 10.6494 17.5774 10.5944 17.6524C10.4793 17.7875 10.4793 18.1126 10.5844 18.2727C10.6294 18.3427 10.7495 18.4228 10.8495 18.4528C11.0246 18.5078 11.1347 18.4678 13.2357 17.6524C15.5568 16.752 15.6568 16.6969 15.6568 16.3968C15.6568 16.0767 15.4267 15.8415 15.1216 15.8515C15.0465 15.8565 14.016 16.2367 12.8305 16.6969Z" fill="white"/>
<path d="M18.6587 9.00835C18.5886 9.04337 18.4936 9.15342 18.4436 9.25847C18.3635 9.41355 18.3585 9.46857 18.4085 9.61865C18.4436 9.71869 18.5186 9.82875 18.5736 9.86876C18.7237 9.96381 22.2004 11.0443 22.3604 11.0443C22.6306 11.0443 22.8807 10.7192 22.8257 10.434C22.7706 10.1489 22.6206 10.0839 20.7497 9.49859C19.7692 9.19344 18.9288 8.94332 18.8738 8.94332C18.8237 8.94332 18.7287 8.97334 18.6587 9.00835Z" fill="white"/>
<path d="M18.2327 12.615C18.0926 12.6751 18.0076 12.7901 17.9375 13.0102C17.9025 13.1153 18.0076 13.3904 18.1126 13.4805C18.2127 13.5605 22.3246 14.8961 22.4747 14.8961C22.6698 14.8961 22.8599 14.7911 22.9399 14.641C23.035 14.4509 23.03 14.3008 22.9099 14.1108C22.8099 13.9407 22.7799 13.9307 18.933 12.6901C18.4228 12.525 18.4328 12.525 18.2327 12.615Z" fill="white"/>
<path d="M2.82072 6.01188L2.64564 6.18696L2.66064 7.7377C2.67565 9.25343 2.68065 9.29345 2.7857 9.3985C2.91076 9.52856 6.79263 10.6941 7.09277 10.6941C7.19782 10.6941 7.32788 10.6591 7.38291 10.6191C7.59301 10.474 7.60802 10.339 7.59301 8.7782L7.578 7.29249L7.44794 7.16743C7.34289 7.06238 6.9427 6.92732 5.2819 6.43708C4.16136 6.11192 3.1909 5.84179 3.12086 5.84179C3.04083 5.84179 2.92577 5.90683 2.82072 6.01188ZM5.37695 7.54261L6.5275 7.87777L6.54251 8.68816C6.54751 9.12837 6.5375 9.49355 6.51749 9.49355C6.49748 9.49355 5.85718 9.30846 5.09181 9.08335L3.70114 8.67315V7.04737L3.96627 7.12741C4.10634 7.16743 4.74664 7.35752 5.37695 7.54261Z" fill="white"/>
<path d="M2.91558 12.0548C2.86055 12.0798 2.77051 12.1798 2.72049 12.2699C2.60543 12.48 2.66546 12.7701 2.85055 12.9002C3.01062 13.0152 6.84747 14.1458 7.08258 14.1458C7.31269 14.1458 7.43275 14.0758 7.5328 13.8857C7.63284 13.6906 7.59282 13.4505 7.43275 13.3004C7.3427 13.2153 6.76243 13.0253 5.29172 12.59C4.18119 12.2649 3.22073 11.9998 3.15069 11.9998C3.08066 11.9998 2.97561 12.0248 2.91558 12.0548Z" fill="white"/>
<path d="M2.8563 14.4258C2.6662 14.5858 2.61118 14.826 2.72123 15.0361C2.76625 15.1211 2.84129 15.2161 2.89131 15.2412C3.0764 15.3412 5.06235 15.8965 5.23244 15.8965C5.63263 15.8965 5.85774 15.3812 5.59261 15.0711C5.49756 14.966 5.27246 14.881 4.37703 14.6159C3.77173 14.4408 3.21647 14.2957 3.14143 14.2957C3.0714 14.2957 2.94134 14.3557 2.8563 14.4258Z" fill="white"/>
<path d="M1.14507 0.984425L1 1.12949V10.6391C1 17.2872 1.01501 20.1786 1.05503 20.2637C1.08504 20.3237 1.15007 20.4037 1.2001 20.4388C1.38018 20.5488 8.99384 23 9.16392 23C9.26397 23 10.7797 22.4197 13.0858 21.4993L16.8426 19.9935L20.6394 21.2291C24.7964 22.5798 24.6514 22.5448 24.8815 22.2346L24.9865 22.0946L24.9965 12.8801C25.0065 5.62665 24.9965 3.6407 24.9465 3.54565C24.9165 3.48062 24.8314 3.38558 24.7614 3.33555C24.6213 3.2305 17.0177 0.839355 16.8276 0.839355C16.7626 0.839355 15.0117 1.36961 12.9357 2.01492L9.16392 3.19549L5.39711 2.01492C3.32612 1.36961 1.55527 0.839355 1.46022 0.839355C1.34016 0.839355 1.25012 0.879375 1.14507 0.984425ZM16.2973 14.8211L16.2823 19.1081L12.9908 20.4238C10.8497 21.2792 9.68917 21.7194 9.67416 21.6844C9.66416 21.6493 9.65916 17.6874 9.66416 12.8751L9.67916 4.12093L16.2823 2.05994L16.2973 6.29697C16.3023 8.62809 16.3023 12.4649 16.2973 14.8211ZM23.961 12.655C23.961 17.3573 23.946 21.1991 23.931 21.1991C23.901 21.1991 22.8055 20.844 18.9486 19.5934L17.3578 19.0731V2.05494L23.961 4.11593V12.655ZM5.40211 3.10544L8.62866 4.11593L8.64367 12.9652C8.65367 20.0336 8.64367 21.8044 8.59364 21.7844C8.5036 21.7544 2.91092 19.9285 2.41568 19.7734L2.00048 19.6434V10.8692C2.00048 2.54017 2.00548 2.08996 2.09052 2.09496C2.13554 2.09496 3.62626 2.55018 5.40211 3.10544Z" stroke="white" stroke-width="0.4" mask="url(#path-1-outside-1_844_1334)"/>
<path d="M12.8561 5.49656C11.6305 5.87674 10.575 6.22191 10.515 6.25192C10.3799 6.32195 10.2549 6.53706 10.2549 6.69213C10.2549 6.95726 10.5 7.19237 10.7801 7.19237C10.8452 7.19237 11.9107 6.87722 13.1413 6.49204C15.1472 5.86674 15.3974 5.78169 15.5224 5.64163C15.7625 5.3715 15.6725 5.00632 15.3273 4.86125C15.2373 4.82123 15.1422 4.79122 15.1222 4.79622C15.1022 4.79622 14.0817 5.11137 12.8561 5.49656Z" stroke="white" stroke-width="0.4" mask="url(#path-1-outside-1_844_1334)"/>
<path d="M12.8814 7.77263C10.9605 8.37292 10.7154 8.46297 10.5853 8.60303C10.4653 8.73309 10.4503 8.78812 10.4703 8.9532C10.5003 9.19332 10.6654 9.38341 10.8755 9.41842C10.9855 9.43843 11.6208 9.25835 13.1716 8.77311C14.3522 8.40294 15.3676 8.06277 15.4377 8.01775C15.5727 7.93271 15.6578 7.75763 15.6578 7.56754C15.6578 7.38245 15.4177 7.14233 15.2076 7.11732C15.0825 7.10231 14.4322 7.2874 12.8814 7.77263Z" stroke="white" stroke-width="0.4" mask="url(#path-1-outside-1_844_1334)"/>
<path d="M12.8965 10.664C11.6909 11.1142 10.6754 11.5044 10.6354 11.5394C10.4653 11.6845 10.4503 11.8546 10.4653 13.5754C10.4803 15.3913 10.4853 15.4163 10.7404 15.5514C10.8004 15.5864 10.9155 15.6114 10.9955 15.6064C11.1156 15.6064 14.8774 14.1807 15.3476 13.9606C15.6528 13.8155 15.6578 13.7805 15.6578 11.8996V10.1938L15.5227 10.0437C15.4427 9.96368 15.3176 9.88364 15.2326 9.86863C15.1225 9.84862 14.5172 10.0587 12.8965 10.664ZM14.5973 12.1497L14.5823 13.1552L13.3067 13.6504C12.6063 13.9256 11.911 14.1907 11.7659 14.2457L11.5058 14.3458L11.5158 13.3103L11.5308 12.2798L13.0315 11.7145C13.8569 11.4044 14.5472 11.1492 14.5723 11.1492C14.5923 11.1442 14.6023 11.5995 14.5973 12.1497Z" stroke="white" stroke-width="0.4" mask="url(#path-1-outside-1_844_1334)"/>
<path d="M12.8305 16.6969C11.3998 17.2622 10.6494 17.5774 10.5944 17.6524C10.4793 17.7875 10.4793 18.1126 10.5844 18.2727C10.6294 18.3427 10.7495 18.4228 10.8495 18.4528C11.0246 18.5078 11.1347 18.4678 13.2357 17.6524C15.5568 16.752 15.6568 16.6969 15.6568 16.3968C15.6568 16.0767 15.4267 15.8415 15.1216 15.8515C15.0465 15.8565 14.016 16.2367 12.8305 16.6969Z" stroke="white" stroke-width="0.4" mask="url(#path-1-outside-1_844_1334)"/>
<path d="M18.6587 9.00835C18.5886 9.04337 18.4936 9.15342 18.4436 9.25847C18.3635 9.41355 18.3585 9.46857 18.4085 9.61865C18.4436 9.71869 18.5186 9.82875 18.5736 9.86876C18.7237 9.96381 22.2004 11.0443 22.3604 11.0443C22.6306 11.0443 22.8807 10.7192 22.8257 10.434C22.7706 10.1489 22.6206 10.0839 20.7497 9.49859C19.7692 9.19344 18.9288 8.94332 18.8738 8.94332C18.8237 8.94332 18.7287 8.97334 18.6587 9.00835Z" stroke="white" stroke-width="0.4" mask="url(#path-1-outside-1_844_1334)"/>
<path d="M18.2327 12.615C18.0926 12.6751 18.0076 12.7901 17.9375 13.0102C17.9025 13.1153 18.0076 13.3904 18.1126 13.4805C18.2127 13.5605 22.3246 14.8961 22.4747 14.8961C22.6698 14.8961 22.8599 14.7911 22.9399 14.641C23.035 14.4509 23.03 14.3008 22.9099 14.1108C22.8099 13.9407 22.7799 13.9307 18.933 12.6901C18.4228 12.525 18.4328 12.525 18.2327 12.615Z" stroke="white" stroke-width="0.4" mask="url(#path-1-outside-1_844_1334)"/>
<path d="M2.82072 6.01188L2.64564 6.18696L2.66064 7.7377C2.67565 9.25343 2.68065 9.29345 2.7857 9.3985C2.91076 9.52856 6.79263 10.6941 7.09277 10.6941C7.19782 10.6941 7.32788 10.6591 7.38291 10.6191C7.59301 10.474 7.60802 10.339 7.59301 8.7782L7.578 7.29249L7.44794 7.16743C7.34289 7.06238 6.9427 6.92732 5.2819 6.43708C4.16136 6.11192 3.1909 5.84179 3.12086 5.84179C3.04083 5.84179 2.92577 5.90683 2.82072 6.01188ZM5.37695 7.54261L6.5275 7.87777L6.54251 8.68816C6.54751 9.12837 6.5375 9.49355 6.51749 9.49355C6.49748 9.49355 5.85718 9.30846 5.09181 9.08335L3.70114 8.67315V7.04737L3.96627 7.12741C4.10634 7.16743 4.74664 7.35752 5.37695 7.54261Z" stroke="white" stroke-width="0.4" mask="url(#path-1-outside-1_844_1334)"/>
<path d="M2.91558 12.0548C2.86055 12.0798 2.77051 12.1798 2.72049 12.2699C2.60543 12.48 2.66546 12.7701 2.85055 12.9002C3.01062 13.0152 6.84747 14.1458 7.08258 14.1458C7.31269 14.1458 7.43275 14.0758 7.5328 13.8857C7.63284 13.6906 7.59282 13.4505 7.43275 13.3004C7.3427 13.2153 6.76243 13.0253 5.29172 12.59C4.18119 12.2649 3.22073 11.9998 3.15069 11.9998C3.08066 11.9998 2.97561 12.0248 2.91558 12.0548Z" stroke="white" stroke-width="0.4" mask="url(#path-1-outside-1_844_1334)"/>
<path d="M2.8563 14.4258C2.6662 14.5858 2.61118 14.826 2.72123 15.0361C2.76625 15.1211 2.84129 15.2161 2.89131 15.2412C3.0764 15.3412 5.06235 15.8965 5.23244 15.8965C5.63263 15.8965 5.85774 15.3812 5.59261 15.0711C5.49756 14.966 5.27246 14.881 4.37703 14.6159C3.77173 14.4408 3.21647 14.2957 3.14143 14.2957C3.0714 14.2957 2.94134 14.3557 2.8563 14.4258Z" stroke="white" stroke-width="0.4" mask="url(#path-1-outside-1_844_1334)"/>
</svg>
