<svg width="13" height="24" viewBox="0 0 13 24" fill="none" xmlns="http://www.w3.org/2000/svg">
<path d="M5.92117 24C5.54339 24 5.2265 23.872 4.9705 23.616C4.71539 23.3609 4.58783 23.0444 4.58783 22.6667V21.1333C3.58783 20.9111 2.71006 20.5222 1.9545 19.9667C1.19895 19.4111 0.587834 18.6333 0.121167 17.6333C-0.0343884 17.3222 -0.0401662 16.9947 0.103834 16.6507C0.248723 16.3058 0.510056 16.0556 0.887834 15.9C1.19894 15.7667 1.52117 15.7724 1.8545 15.9173C2.18783 16.0613 2.44339 16.3 2.62117 16.6333C2.99894 17.3 3.47672 17.8058 4.0545 18.1507C4.63228 18.4947 5.34339 18.6667 6.18783 18.6667C7.09895 18.6667 7.87139 18.4613 8.50517 18.0507C9.13806 17.6391 9.4545 17 9.4545 16.1333C9.4545 15.3556 9.21006 14.7387 8.72117 14.2827C8.23228 13.8276 7.09894 13.3111 5.32117 12.7333C3.41006 12.1333 2.09894 11.4169 1.38783 10.584C0.676722 9.75022 0.321167 8.73333 0.321167 7.53333C0.321167 6.08889 0.787834 4.96667 1.72117 4.16667C2.6545 3.36667 3.61006 2.91111 4.58783 2.8V1.33333C4.58783 0.955556 4.71539 0.638667 4.9705 0.382667C5.2265 0.127555 5.54339 0 5.92117 0C6.29894 0 6.61583 0.127555 6.87183 0.382667C7.12694 0.638667 7.2545 0.955556 7.2545 1.33333V2.8C8.09894 2.93333 8.83228 3.20578 9.4545 3.61733C10.0767 4.028 10.5878 4.53333 10.9878 5.13333C11.1878 5.42222 11.2269 5.74444 11.1052 6.1C10.9825 6.45556 10.7323 6.71111 10.3545 6.86667C10.0434 7 9.72117 7.00533 9.38783 6.88267C9.0545 6.76089 8.74339 6.54445 8.4545 6.23333C8.16561 5.92222 7.82694 5.68311 7.4385 5.516C7.04917 5.34978 6.56561 5.26667 5.98783 5.26667C5.01006 5.26667 4.26561 5.48356 3.7545 5.91733C3.24339 6.35022 2.98783 6.88889 2.98783 7.53333C2.98783 8.26667 3.32117 8.84444 3.98783 9.26667C4.6545 9.68889 5.81006 10.1333 7.4545 10.6C8.98783 11.0444 10.1492 11.7498 10.9385 12.716C11.7269 13.6831 12.1212 14.8 12.1212 16.0667C12.1212 17.6444 11.6545 18.8444 10.7212 19.6667C9.78783 20.4889 8.63228 21 7.2545 21.2V22.6667C7.2545 23.0444 7.12694 23.3609 6.87183 23.616C6.61583 23.872 6.29894 24 5.92117 24Z" fill="white"/>
</svg>
